<svg width="32" height="26" viewBox="0 0 32 26" version="1.1" xmlns="http://www.w3.org/2000/svg" xmlns:xlink="http://www.w3.org/1999/xlink">
<title>ampersand</title>
<desc>Created using Figma</desc>
<g id="Canvas" transform="translate(-894 -682)">
<g id="ampersand">
<mask id="mask0_outline" mask-type="alpha">
<g id="Clip 2">
<use xlink:href="#path0_fill" transform="translate(894 682)" fill="#FFFFFF"/>
</g>
</mask>
<g id="Fill 1" mask="url(#mask0_outline)">
<use xlink:href="#path1_fill" transform="translate(894 682)" fill="#FEFEFE"/>
</g>
</g>
</g>
<defs>
<path id="path0_fill" fill-rule="evenodd" d="M 31.746 0L 31.746 25.9332L 0 25.9332L 0 0L 31.746 0Z"/>
<path id="path1_fill" fill-rule="evenodd" d="M 12.8396 23.0481C 11.1036 23.47 9.00161 23.3671 7.27761 22.9452C 3.75761 22.0862 2.20761 19.0065 3.52561 16.1513C 3.92961 15.2772 4.54561 14.506 5.26361 13.7922C 6.05161 15.1422 6.99361 16.4281 8.06361 17.6144C 9.79361 19.528 11.9196 21.2155 14.2856 22.5014C 13.8436 22.7325 13.3636 22.9216 12.8396 23.0481ZM 7.57361 2.63609C 9.26961 2.43359 9.86561 3.27227 10.0056 4.59865C 10.2276 6.70634 8.26761 7.9804 6.47361 9.24096C 6.04761 7.91965 5.80561 6.5629 5.82161 5.1994C 5.83361 4.0519 6.02161 2.8234 7.57361 2.63609ZM 29.4316 21.2324C 26.0396 22.8 22.5316 22.768 19.3116 21.774C 20.7816 19.8199 21.6096 17.4338 21.8536 15.2738C 22.0616 13.4277 21.5376 12.1401 19.2776 11.9039C 17.9776 11.7672 15.9176 11.5815 14.7576 12.2295C 13.1136 13.1475 14.6536 15.4004 16.3136 14.4722C 16.0676 14.6089 16.3096 14.4807 16.4756 14.4621C 16.8076 14.4216 17.1536 14.4216 17.4896 14.4182C 17.7516 14.4165 18.4556 14.403 18.8996 14.4334C 18.7436 14.6258 18.7816 15.208 18.7556 15.3615C 18.6576 15.9404 18.4456 16.5158 18.2616 17.0794C 17.9676 17.9839 17.6536 18.8715 17.1456 19.7085C 16.9536 20.0275 16.7336 20.3346 16.4996 20.6299C 13.7576 19.2445 11.3576 17.2178 9.61961 14.9954C 8.84561 14.0082 8.15761 12.9484 7.57961 11.8448C 8.35361 11.2677 9.13961 10.7091 9.86761 10.1472C 12.3016 8.2656 13.5636 6.43804 12.9356 3.56423C 12.3136 0.710664 9.14561 -0.668024 5.94161 0.315789C 2.20761 1.46329 2.53361 5.49979 3.06761 8.18291C 3.26961 9.19879 3.58561 10.1995 3.97961 11.1799C 2.17761 12.7324 0.631611 14.5195 0.161611 16.6964C -0.502389 19.7777 0.887611 23.0599 4.18561 24.6529C 7.20361 26.1109 11.6356 26.3708 14.8256 25.1912C 15.7296 24.8554 16.5376 24.393 17.2616 23.8429C 21.5676 25.4123 26.3876 25.6013 30.9856 23.4767C 32.7256 22.6735 31.1736 20.4291 29.4316 21.2324Z"/>
</defs>
</svg>
