<svg width="207" height="30" viewBox="0 0 207 30" version="1.1" xmlns="http://www.w3.org/2000/svg" xmlns:xlink="http://www.w3.org/1999/xlink">
<title>limonada</title>
<desc>Created using Figma</desc>
<g id="Canvas" transform="translate(-532 -682)">
<g id="limonada">
<g id="Fill 1">
<use xlink:href="#path0_fill" transform="translate(559.282 683.224)" fill="#FEFEFE"/>
</g>
<g id="Group 5">
<mask id="mask0_outline" mask-type="alpha">
<g id="Clip 4">
<use xlink:href="#path1_fill" transform="translate(532 683.534)" fill="#FFFFFF"/>
</g>
</mask>
<g id="Fill 3" mask="url(#mask0_outline)">
<use xlink:href="#path2_fill" transform="translate(532 683.534)" fill="#FEFEFE"/>
</g>
</g>
<g id="Fill 6">
<use xlink:href="#path3_fill" transform="translate(581.182 683.866)" fill="#FEFEFE"/>
</g>
<g id="Fill 8">
<use xlink:href="#path4_fill" transform="translate(615.351 684.17)" fill="#FEFEFE"/>
</g>
<g id="Group 12">
<g id="Fill 10">
<use xlink:href="#path5_fill" transform="translate(641.375 682.722)" fill="#FEFEFE"/>
</g>
</g>
<g id="Fill 13">
<use xlink:href="#path6_fill" transform="translate(672.818 683.999)" fill="#FEFEFE"/>
</g>
<g id="Fill 15">
<use xlink:href="#path6_fill" transform="translate(725.39 683.999)" fill="#FEFEFE"/>
</g>
<g id="Fill 17">
<use xlink:href="#path7_fill" transform="translate(697.487 684.343)" fill="#FEFEFE"/>
</g>
</g>
</g>
<defs>
<path id="path0_fill" fill-rule="evenodd" d="M 0.000245272 1.28069C 0.144855 9.24941 0.184474 17.225 0.0220357 25.1937C -0.0116404 26.9005 3.03903 26.9022 3.0727 25.1937C 3.23514 17.225 3.19552 9.24941 3.05091 1.28069C 3.01922 -0.424312 -0.03145 -0.429478 0.000245272 1.28069Z"/>
<path id="path1_fill" fill-rule="evenodd" d="M 0 0L 0 25.9839L 9.11743 25.9839L 9.11743 0L 6.71173e-21 0L 0 0Z"/>
<path id="path2_fill" fill-rule="evenodd" d="M 7.64523 23.1133C 6.17734 23.0857 4.71144 23.2786 3.23563 23.3234C 2.8751 15.985 3.17026 8.6208 3.17422 1.28069C 3.17422 -0.426035 0.123553 -0.427757 0.123553 1.28069C 0.119591 9.05652 -0.221133 16.8616 0.246372 24.6323C 0.291934 25.3866 0.911972 25.9033 1.77171 25.9567C 3.74473 26.0824 5.69201 25.7294 7.64523 25.7655C 9.60835 25.8017 9.60835 23.1495 7.64523 23.1133Z"/>
<path id="path3_fill" fill-rule="evenodd" d="M 13.0695 2.2732C 13.1468 2.04931 13.2498 2.10958 13.0695 2.2732L 13.0695 2.2732ZM 14.0164 3.90931C 13.9272 2.89148 14.0005 1.39659 13.2141 0.564755C 11.9879 -0.733801 10.5814 0.463144 10.1337 1.58603C 9.54935 3.05164 9.2423 4.60681 8.77479 6.1017C 8.42614 7.2177 8.10325 8.33887 7.76451 9.45659C 6.93053 6.95076 6.04306 4.45698 4.93175 2.05448C 4.44245 0.997033 2.26538 0.60781 1.99003 2.05448C 1.36009 5.38525 1.33037 8.79698 1.06295 12.1588C 0.916355 13.9964 0.609307 15.8185 0.452812 17.6578C 0.26066 19.9088 0.197269 22.1683 0.0051168 24.4193C -0.141474 26.1225 2.90919 26.1139 3.0538 24.4193C 3.39651 20.4237 3.75902 16.4281 4.09182 12.4343C 4.19483 11.1891 4.25624 9.93192 4.32557 8.6747C 5.03475 10.7259 5.68451 12.796 6.35407 14.8385C 6.76016 16.0734 8.92138 16.1285 9.29578 14.8385C 9.87422 12.8442 10.4665 10.8533 11.0747 8.86587C 11.14 8.65231 11.2074 8.44048 11.2728 8.22864C 11.3124 8.8452 11.354 9.46175 11.3797 10.08C 11.5818 14.7645 11.5719 19.4541 11.9839 24.1316C 12.1325 25.8211 15.1852 25.8366 15.0346 24.1316C 14.5928 19.1079 14.6384 14.0687 14.3809 9.03981C 14.2937 7.32792 14.1669 5.61775 14.0164 3.90931Z"/>
<path id="path4_fill" fill-rule="evenodd" d="M 6.37625 17.9458C 6.27522 19.2185 6.38813 21.7623 5.0708 22.663C 4.83309 22.8249 4.93015 22.8869 4.47057 22.675C 4.19126 22.5459 3.88223 22.4253 3.69206 22.1928C 3.1156 21.485 3.26219 20.0176 3.20672 19.1772C 2.9175 14.7029 3.44246 10.2165 3.05221 5.74558C 3.03438 4.65886 3.09183 3.20703 4.45868 2.77131C 6.28512 2.18747 6.4951 5.38047 6.51491 6.36042C 6.58425 10.2044 6.67933 14.1087 6.37625 17.9458ZM 9.55965 6.16406C 9.50022 4.17834 9.01687 2.04968 7.1825 0.709787C 5.68688 -0.383825 3.79706 -0.103102 2.28361 0.802787C 0.413589 1.92223 -0.030144 3.88729 0.0015512 5.74556C 0.423494 10.5885 -0.244087 15.4555 0.247189 20.2949C 0.445285 22.241 0.732522 24.0011 2.9294 24.9638C 4.83904 25.8008 6.57237 25.3944 7.82631 23.9098C 9.0545 22.4563 9.17732 20.474 9.35561 18.7328C 9.57946 16.556 9.58936 14.3653 9.57747 12.1815C 9.56361 10.1786 9.61709 8.16701 9.55965 6.16406Z"/>
<path id="path5_fill" fill-rule="evenodd" d="M 11.6229 24.4489C 11.6546 24.4661 11.6843 24.4816 11.7219 24.4989C 11.6645 24.473 11.6367 24.4592 11.6229 24.4489ZM 10.8899 3.50668C 10.6225 7.07685 10.5274 10.6573 10.3689 14.2327C 10.3075 15.6397 10.2738 17.0675 10.2065 18.4969C 9.71915 16.1685 9.25165 13.8383 8.74452 11.515C 7.97393 7.97929 7.26872 4.29201 5.6998 0.944013C 5.21447 -0.0893203 2.99382 -0.521598 2.75809 0.944013C 1.37142 9.59301 0.981173 18.3367 0.00852501 27.0219C -0.181646 28.72 2.871 28.7097 3.05919 27.0219C 3.76837 20.6824 4.14079 14.305 4.85195 7.96207C 5.18475 9.33123 5.47397 10.7073 5.76913 12.0627C 6.56152 15.6862 7.19938 19.3373 8.08091 22.9454C 8.30673 23.8702 8.48898 24.9535 9.04959 25.7819C 9.77264 26.848 11.3732 26.8927 12.122 25.8215C 12.75 24.9242 12.7579 23.5981 12.8748 22.5941C 13.0808 20.7995 13.1819 18.9963 13.2769 17.1949C 13.5206 12.6345 13.5979 8.06368 13.9406 3.50668C 14.0673 1.8034 11.0167 1.81029 10.8899 3.50668Z"/>
<path id="path6_fill" fill-rule="evenodd" d="M 5.17517 14.3236C 5.51986 12.6048 5.86454 10.886 6.20527 9.16724C 6.51826 10.8877 6.83323 12.61 7.15414 14.3287C 6.49449 14.3477 5.83285 14.3391 5.17517 14.3236ZM 10.809 13.6829C 10.5931 13.769 10.3712 13.8379 10.1494 13.9033C 9.34114 9.58572 8.5765 5.26294 7.76232 0.948778C 7.51867 -0.334278 5.09794 -0.298111 4.82061 0.948778C 3.14274 8.47833 1.92644 16.0871 0.0405714 23.5805C -0.37741 25.2442 2.56232 25.9554 2.98229 24.2866C 3.5944 21.8531 4.1253 19.4076 4.6344 16.9586C 5.65261 16.9706 6.65893 16.9706 7.65337 16.9138C 8.25954 20.0706 8.8875 23.224 9.59867 26.3636C 9.97901 28.0359 12.9187 27.3281 12.5404 25.6575C 11.851 22.6143 11.2389 19.5591 10.6506 16.4987C 11.2211 16.3627 11.7876 16.1973 12.3482 15.9734C 14.1291 15.2604 12.582 12.9733 10.809 13.6829Z"/>
<path id="path7_fill" fill-rule="evenodd" d="M 10.5976 21.0652C 10.1915 21.8953 9.73587 22.2345 8.77313 22.374C 8.49183 22.4154 7.99858 22.4533 7.58456 22.529C 7.56475 22.2638 7.54494 22.0003 7.53107 21.7351C 7.37656 18.7384 7.3409 15.7366 7.30128 12.7382C 7.25572 9.40399 7.23195 6.06805 7.24978 2.73383C 7.6222 2.79755 7.98867 2.88021 8.33534 3.00938C 10.3797 3.77405 10.7363 5.79938 11.0532 7.50094C 11.4573 9.6761 11.5187 11.9115 11.5484 14.1091C 11.5801 16.3308 11.6198 18.9761 10.5976 21.0652ZM 7.66978 23.4487C 7.6678 23.447 7.66582 23.4418 7.66185 23.4401C 7.66384 23.3919 7.66185 23.3454 7.65393 23.2937C 7.67374 23.2403 7.70147 23.2455 7.66978 23.4487ZM 7.66187 23.447C 7.66583 23.4487 7.66781 23.4487 7.66979 23.4504C 7.66781 23.4642 7.66781 23.4728 7.66583 23.4883C 7.66781 23.4762 7.66187 23.4607 7.66187 23.447ZM 10.5382 1.04259C 7.85796 -0.467796 4.42695 0.0144263 1.45156 0.338204C -0.471948 0.548315 -0.49572 3.20226 1.45156 2.99043C 2.30535 2.89743 3.2463 2.76137 4.19716 2.67698C 4.17735 6.35737 4.20706 10.0378 4.26451 13.7181C 4.31205 16.8922 4.22687 20.1248 4.58939 23.2885C 4.7439 24.6233 5.48478 25.3759 7.17849 25.2915C 9.3298 25.183 11.4316 24.7783 12.7153 23.1611C 14.3713 21.0738 14.5258 17.9927 14.5932 15.5437C 14.6665 12.8915 14.5437 10.1876 14.1237 7.55604C 13.7295 5.08637 13.1114 2.49443 10.5382 1.04259Z"/>
</defs>
</svg>
