<svg width="286" height="321" viewBox="0 0 286 321" version="1.1" xmlns="http://www.w3.org/2000/svg" xmlns:xlink="http://www.w3.org/1999/xlink">
<title>sailor_himself</title>
<desc>Created using Figma</desc>
<g id="Canvas" transform="translate(-767 -175)">
<g id="sailor_himself">
<g id="Page 1">
<g id="Fill 1">
<use xlink:href="#path0_fill" transform="translate(1036 383.68)" fill="#260E47"/>
</g>
<g id="Group 5">
<mask id="mask0_outline" mask-type="alpha">
<g id="Clip 4">
<use xlink:href="#path1_fill" transform="translate(1043.77 382)" fill="#FFFFFF"/>
</g>
</mask>
<g id="Fill 3" mask="url(#mask0_outline)">
<use xlink:href="#path2_fill" transform="translate(1043.77 382)" fill="#00AC5E"/>
</g>
</g>
</g>
<g id="Page 1">
<g id="Group 24">
<g id="Fill 1">
<use xlink:href="#path3_fill" transform="translate(813.499 282.292)" fill="#DEB188"/>
</g>
<g id="Fill 3">
<use xlink:href="#path4_fill" transform="translate(955.748 288.338)" fill="#9A683F"/>
</g>
<g id="Fill 5">
<use xlink:href="#path5_fill" transform="translate(797.655 284.74)" fill="#9A683F"/>
</g>
<g id="Group 9">
<g id="Fill 7">
<use xlink:href="#path6_fill" transform="translate(767 175.343)" fill="#FEFEFE"/>
</g>
</g>
<g id="Fill 10">
<use xlink:href="#path7_fill" transform="translate(810.588 285.811)" fill="#000F32"/>
</g>
<g id="Fill 12">
<use xlink:href="#path8_fill" transform="translate(882.977 339.297)" fill="#CB6F4B"/>
</g>
<g id="Fill 14">
<use xlink:href="#path9_fill" transform="translate(799.437 337.538)" fill="#9A683F"/>
</g>
<g id="Fill 16">
<use xlink:href="#path10_fill" transform="translate(885.707 403.002)" fill="#CB6F4B"/>
</g>
<g id="Fill 18">
<use xlink:href="#path11_fill" transform="translate(872.741 250.506)" fill="#66BBBF"/>
</g>
<g id="Fill 20">
<use xlink:href="#path12_fill" transform="translate(881.622 259.278)" fill="#000F32"/>
</g>
<g id="Fill 22">
<use xlink:href="#path13_fill" transform="translate(913.16 328.386)" fill="#F3F3F3"/>
</g>
</g>
<g id="Group 27">
<mask id="mask1_outline" mask-type="alpha">
<g id="Clip 26">
<use xlink:href="#path14_fill" transform="translate(932.007 328.35)" fill="#FFFFFF"/>
</g>
</mask>
<g id="Fill 25" mask="url(#mask1_outline)">
<use xlink:href="#path15_fill" transform="translate(932.007 324.244)" fill="#000F32"/>
</g>
</g>
<g id="Group 32">
<g id="Fill 28">
<use xlink:href="#path16_fill" transform="translate(943.366 333.879)" fill="#FEFEFE"/>
</g>
<g id="Fill 30">
<use xlink:href="#path17_fill" transform="translate(826.547 329.557)" fill="#F3F3F3"/>
</g>
</g>
<g id="Group 35">
<mask id="mask2_outline" mask-type="alpha">
<g id="Clip 34">
<use xlink:href="#path18_fill" transform="translate(847.618 329.555)" fill="#FFFFFF"/>
</g>
</mask>
<g id="Fill 33" mask="url(#mask2_outline)">
<use xlink:href="#path19_fill" transform="translate(847.618 326.018)" fill="#000F32"/>
</g>
</g>
<g id="Group 47">
<g id="Fill 36">
<use xlink:href="#path20_fill" transform="translate(858.5 335.688)" fill="#FEFEFE"/>
</g>
<g id="Fill 38">
<use xlink:href="#path21_fill" transform="translate(894.245 371.886)" fill="#613F20"/>
</g>
<g id="Fill 40">
<use xlink:href="#path22_fill" transform="translate(789.395 371.876)" fill="#613F20"/>
</g>
<g id="Fill 42">
<use xlink:href="#path23_fill" transform="translate(889.064 405.33)" fill="#EE3B2F"/>
</g>
<g id="Group 46">
<mask id="mask3_outline" mask-type="alpha">
<g id="Clip 45">
<use xlink:href="#path24_fill" transform="translate(969.409 417.698)" fill="#FFFFFF"/>
</g>
</mask>
<g id="Fill 44" mask="url(#mask3_outline)">
<use xlink:href="#path25_fill" transform="translate(969.409 417.698)" fill="#000F32"/>
</g>
</g>
</g>
</g>
<g id="Page 1">
<g id="Group 3">
<g id="Fill 1">
<use xlink:href="#path26_fill" transform="translate(995 390.294)" fill="#EE3B2F"/>
</g>
</g>
<g id="Group 6">
<mask id="mask4_outline" mask-type="alpha">
<g id="Clip 5">
<use xlink:href="#path27_fill" transform="translate(996.411 384.027)" fill="#FFFFFF"/>
</g>
</mask>
<g id="Fill 4" mask="url(#mask4_outline)">
<use xlink:href="#path28_fill" transform="translate(996.411 384.027)" fill="#008F72"/>
</g>
</g>
<g id="Fill 7">
<use xlink:href="#path29_fill" transform="translate(1004 397)" fill="#9ED8DB"/>
</g>
<g id="Fill 9">
<use xlink:href="#path30_fill" transform="translate(1012 394)" fill="#9ED8DB"/>
</g>
<g id="Fill 11">
<use xlink:href="#path31_fill" transform="translate(1011 400)" fill="#9ED8DB"/>
</g>
<g id="Fill 13">
<use xlink:href="#path32_fill" transform="translate(1011 405)" fill="#9ED8DB"/>
</g>
<g id="Fill 15">
<use xlink:href="#path33_fill" transform="translate(1002 405)" fill="#9ED8DB"/>
</g>
<g id="Fill 17">
<use xlink:href="#path34_fill" transform="translate(1007 407)" fill="#9ED8DB"/>
</g>
<g id="Fill 19">
<use xlink:href="#path35_fill" transform="translate(997 397)" fill="#9ED8DB"/>
</g>
</g>
<g id="Page 1">
<g id="Group 3">
<g id="Fill 1">
<use xlink:href="#path36_fill" transform="translate(1035 339.652)" fill="#EE3B2F"/>
</g>
</g>
<g id="Group 6">
<mask id="mask5_outline" mask-type="alpha">
<g id="Clip 5">
<use xlink:href="#path37_fill" transform="translate(1042.04 337)" fill="#FFFFFF"/>
</g>
</mask>
<g id="Fill 4" mask="url(#mask5_outline)">
<use xlink:href="#path38_fill" transform="translate(1042.04 337)" fill="#008F72"/>
</g>
</g>
<g id="Fill 7">
<use xlink:href="#path39_fill" transform="translate(1037.99 345.487)" fill="#9ED8DB"/>
</g>
<g id="Fill 9">
<use xlink:href="#path40_fill" transform="translate(1043.24 346.078)" fill="#9ED8DB"/>
</g>
<g id="Fill 11">
<use xlink:href="#path40_fill" transform="translate(1040.88 347.972)" fill="#9ED8DB"/>
</g>
<g id="Fill 13">
<use xlink:href="#path40_fill" transform="translate(1040.28 351.659)" fill="#9ED8DB"/>
</g>
<g id="Fill 15">
<use xlink:href="#path40_fill" transform="translate(1046.46 346.975)" fill="#9ED8DB"/>
</g>
<g id="Fill 17">
<use xlink:href="#path41_fill" transform="translate(1039.99 353.911)" fill="#9ED8DB"/>
</g>
<g id="Fill 19">
<use xlink:href="#path41_fill" transform="translate(1049.34 348.843)" fill="#9ED8DB"/>
</g>
<g id="Fill 21">
<use xlink:href="#path42_fill" transform="translate(1038.18 352.099)" fill="#9ED8DB"/>
</g>
<g id="Fill 23">
<use xlink:href="#path42_fill" transform="translate(1039.23 341.813)" fill="#9ED8DB"/>
</g>
<g id="Fill 25">
<use xlink:href="#path43_fill" transform="translate(1045.6 351.111)" fill="#9ED8DB"/>
</g>
</g>
</g>
</g>
<defs>
<path id="path0_fill" fill-rule="evenodd" d="M 7.87336 1.17777C 8.16536 0.727771 9.60036 1.73377 10.0554 2.01877C 11.1534 2.70477 11.9314 3.76477 13.2594 6.04677C 13.6174 6.66077 14.3604 9.46077 14.0524 10.1018C 13.7704 10.6888 12.4044 11.9838 11.2744 10.7098C 11.3224 11.6058 11.2544 11.7678 10.7484 12.5078C 10.3744 13.0558 9.42336 13.3828 8.81336 13.1218C 8.20436 12.8608 8.17936 12.8188 7.74836 12.3158C 7.56036 12.8578 6.81136 13.8588 5.78936 13.8358C 5.47836 13.8288 4.58236 13.3128 4.38736 12.9268C 3.97336 13.6598 3.15836 13.1148 3.05536 12.5178C 2.45136 13.1138 1.57136 12.4298 1.05836 11.9398C 0.41936 11.3278 0.61536 10.0898 1.41336 9.70577C 0.99236 9.38277 0.56236 9.04977 0.27936 8.60077C -0.00263959 8.15177 -0.11164 7.55477 0.14436 7.08977C 0.40036 6.62477 1.09036 6.41077 1.49436 6.75477C 1.19936 6.17677 0.99936 5.48577 1.24336 4.88277C 1.48736 4.28077 2.33736 3.92277 2.82136 4.35677C 2.78036 3.67877 2.81336 2.94777 3.21636 2.40077C 3.61936 1.85377 4.51236 1.62977 4.98336 2.11877C 4.65236 1.37777 5.04936 0.398771 5.80336 0.096771C 6.55736 -0.205229 7.51936 0.228771 7.79236 0.993771"/>
<path id="path1_fill" fill-rule="evenodd" d="M 8.78364 9.382L 8.78364 0L 8.88178e-16 1.77636e-15L 0 9.382L 8.78364 9.382Z"/>
<path id="path2_fill" fill-rule="evenodd" d="M 0.0720382 4.25093C 0.0720382 3.28393 0.484038 2.36693 0.945038 1.51593C 1.27504 0.905934 1.68904 0.265934 2.34804 0.0499339C 3.00804 -0.166066 3.90004 0.347934 3.76704 1.02893C 3.74304 1.15693 3.68604 1.29193 3.74004 1.40993C 3.85004 1.65293 4.21004 1.52393 4.45204 1.41093C 4.95304 1.17493 5.66504 1.24493 5.92004 1.73693C 6.21104 2.30193 5.73904 2.94993 5.27704 3.38593C 5.10404 3.54893 4.92304 3.82793 5.09604 3.98993C 5.20404 4.09093 5.37504 4.05693 5.51604 4.01793C 5.92404 3.90293 6.33304 3.78893 6.74104 3.67493C 7.43804 3.47993 8.37904 3.38293 8.70204 4.02993C 8.97304 4.57493 8.52804 5.23393 7.98304 5.50393C 7.43804 5.77393 6.80604 5.80893 6.24104 6.03393C 6.13804 6.07493 6.02604 6.13893 6.00904 6.24693C 5.98704 6.38693 6.13304 6.48693 6.25504 6.55793C 6.82004 6.88793 7.32304 7.44193 7.32704 8.09693C 7.33004 8.64893 6.93404 9.17993 6.40304 9.33493C 5.87304 9.48993 5.25304 9.25393 4.95904 8.78593C 4.69204 8.36093 4.59604 7.71393 4.10304 7.61193C 3.67204 7.52393 3.16604 7.95093 2.82604 7.67093C 2.42404 7.33893 2.96904 6.69793 2.87304 6.18493C 2.79904 5.78593 2.34804 5.57693 1.94404 5.53093C 1.54004 5.48593 1.11404 5.53593 0.743038 5.36993C 0.372038 5.20393 -0.202962 4.54993 0.0720382 4.25093Z"/>
<path id="path3_fill" fill-rule="evenodd" d="M 1.84853 24.806C 1.94571 51.1915 -4.36547 129.424 5.79597 143.423C 28.9212 175.269 54.292 181.576 81.8452 181.576C 109.401 181.576 135.628 169.871 154.354 138.964C 165.112 121.212 155.615 63.9801 155.476 25.9082C 155.457 20.8012 143.308 6.7949 120.7 4.21776C 104.056 2.32296 84.8787 0.729964 65.9557 0.0266306C 57.6695 -0.280421 48.6768 2.1445 41.7563 3.34909C 10.0743 8.86553 1.79863 11.4007 1.84853 24.806Z"/>
<path id="path4_fill" fill-rule="evenodd" d="M 6.02016 0.547526C 11.8139 -1.71731 17.8677 3.33461 18.8868 10.3548C 19.9058 17.375 16.7541 18.451 18.1225 23.5791C 19.4908 28.7097 19.6563 26.0381 22.6293 33.9795C 25.6024 41.9234 17.9308 49.9803 11.2545 50.5681C 4.57828 51.156 1.38461 39.1862 2.25919 34.4597C 3.13115 29.7332 6.44826 22.154 2.83699 16.6192C -0.776898 11.0844 -2.10059 3.72302 6.02016 0.547526Z"/>
<path id="path5_fill" fill-rule="evenodd" d="M 16.6745 58.7262C 9.99034 59.3928 -0.924866 47.3627 0.0626506 39.7677C 1.05279 32.1728 4.64305 31.9733 4.71658 26.239C 4.79012 20.5074 3.83938 23.2394 3.0646 14.1144C 2.28982 4.99209 12.6193 -1.15157 19.7316 0.181611C 26.8438 1.51742 19.5451 26.386 18.6915 31.5062C 18.1794 34.5846 18.9463 34.4481 21.0894 41.2531C 23.2299 48.0607 26.0427 57.7893 16.6745 58.7262Z"/>
<path id="path6_fill" fill-rule="evenodd" d="M 0.659273 131.941C -3.6007 105.692 13.497 95.6403 31.4062 84.8488C 83.4662 53.4797 78.8096 1.27033 132.385 0.0132526C 170.281 -0.876411 167.077 43.2577 181.207 62.8435C 195.337 82.4318 225.149 73.3016 234.517 91.6617C 243.882 110.022 239.869 145.044 206.325 147.327C 202.588 146.894 203.355 139.914 197.157 139.433C 176.167 137.811 153.246 129.996 122.885 129.98C 93.8614 129.965 60.9188 150.831 49.347 155.248C 29.7963 170.745 3.71637 150.781 0.659273 131.941Z"/>
<path id="path7_fill" fill-rule="evenodd" d="M 0.120811 19.9849C -0.753771 21.1502 3.32499 42.7881 5.75701 44.78C 9.8988 43.4442 11.5954 42.0428 18.2796 40.7359C 22.1246 39.9853 28.9243 39.5234 33.1317 38.8411C 36.9321 38.227 43.8473 37.151 47.6687 36.6314C 52.1151 36.0251 58.4263 36.1144 62.5234 35.684C 70.2712 34.8704 76.7925 34.4899 81.1917 34.5791C 88.1096 34.7182 91.0669 34.4006 96.6532 34.5004C 105.869 34.6657 114.983 34.9491 121.304 35.0515C 132.511 35.2352 140.831 34.1749 146.904 34.4216C 153.472 34.6867 156.001 36.1196 162.738 36.8597C 165.301 30.5822 165.821 10.9466 163.001 8.78935C 160.177 6.63211 152.579 4.31741 145.661 3.78991C 139.229 3.29915 129.562 0.134155 120.537 0.000311805C 115.902 -0.0705464 105.609 11.957 101.102 14.2087C 93.5173 17.9983 82.1398 17.9983 72.6586 14.2087C 65.1525 11.209 54.8177 2.22841 47.0594 3.78991C 38.4449 5.522 20.2047 11.5318 12.927 13.7363C 5.01112 16.135 2.25343 17.1454 0.120811 19.9849Z"/>
<path id="path8_fill" fill-rule="evenodd" d="M 0.281632 1.64289C 1.26127 -0.309648 14.4194 -0.887011 15.3833 1.95781C 16.3472 4.80526 14.5875 32.5869 13.944 34.4843C 13.3032 36.3818 3.04195 36.2243 2.0807 33.8545C 1.11682 31.482 -0.698006 3.59542 0.281632 1.64289Z"/>
<path id="path9_fill" fill-rule="evenodd" d="M 182.943 26.7709C 183.074 20.6928 177.79 20.3516 176.781 16.5857C 175.77 12.8197 177.989 13.5099 178.367 8.6233C 178.743 3.73409 175.426 -0.585637 171.179 0.0652083C 165.222 0.975867 159.683 5.24835 161.28 9.52609C 162.856 13.7461 164.739 19.1418 163.542 22.2202C 164.692 22.0339 159.318 23.9287 158.688 28.3507C 158.055 32.7702 162.796 35.9299 159.951 39.0871C 157.107 42.2442 150.846 37.7696 144.437 38.41C 119.744 40.8769 118.486 68.6402 112.803 68.6402C 107.117 68.6402 119.143 84.8667 115.589 86.9951C 112.038 89.1261 107.878 81.5626 101.486 82.9824C 95.0904 84.4022 98.2578 93.7843 91.8626 92.3645C 85.4674 90.9447 89.73 79.5864 84.7583 79.5864C 79.7839 79.5864 76.6086 86.3941 71.6343 85.6855C 66.6599 84.9743 70.547 78.1667 66.9935 76.0357C 63.4426 73.9073 61.9561 71.2619 57.6935 69.1309C 53.4309 67.0026 55.6265 66.8057 52.0757 63.9662C 48.5222 61.1266 37.8644 64.6774 32.89 61.1266C 27.9183 57.5784 35.2721 47.2148 31.0095 42.2442C 27.9551 38.6855 24.3727 40.6669 23.1094 38.4546C 21.8435 36.2449 25.3024 32.8279 25.636 28.3507C 25.8592 25.3773 20.7378 22.8081 18.6052 20.2099C 16.4726 17.6118 19.4272 13.4023 19.6321 10.6651C 20.005 5.67613 15.7503 2.22769 9.20275 3.08587C 4.53306 3.69735 -1.53649 9.11143 0.354498 14.1397C 1.59677 17.4438 3.77929 23.4956 4.46215 27.7183C 5.14763 31.9409 0.196916 35.5337 0.669663 41.9293C 1.18443 48.8681 8.30978 48.7868 8.25463 52.8231C 8.19948 56.862 2.89945 60.9744 3.9894 67.5091C 5.88564 78.8779 11.5744 75.0909 11.5744 79.3503C 11.5744 83.6096 4.46477 88.1209 5.88564 97.3508C 6.38465 100.602 10.9178 103.054 13.6282 106.035C 15.5323 108.129 11.4142 118.036 16.1548 121.826C 20.8954 125.615 25.0372 124.92 26.7443 125.773C 31.0069 127.901 23.9026 134.774 29.5887 139.036C 35.2721 143.296 40.0206 137.617 44.2832 139.036C 48.5458 140.456 43.9444 148.282 55.3114 151.83C 66.6783 155.381 67.5923 148.983 71.1458 148.983C 74.6993 148.983 69.7774 154.99 79.0144 157.83C 88.2513 160.672 91.8679 148.838 96.1305 149.547C 100.393 150.258 99.8126 158.462 109.985 158.462C 117.885 158.462 116.734 149.901 121.709 148.482C 126.683 147.062 132.382 156.874 138.778 154.035C 145.173 151.195 142.1 139.588 146.362 138.876C 150.625 138.168 156.597 146.576 162.796 142.036C 167.536 138.561 166.985 124.587 169.117 122.456C 171.247 120.327 177.556 114.596 179.686 107.497C 181.819 100.398 173.645 92.9681 175.066 87.9976C 176.487 83.0296 184.863 85.2367 184.602 76.7442C 184.342 68.2544 174.173 67.9788 174.885 63.7195C 175.549 59.7357 181.522 56.1403 180.81 49.0335C 180.098 41.9293 177.343 43.9763 178.202 40.5069C 179.297 36.09 182.706 37.6646 182.943 26.7709Z"/>
<path id="path10_fill" fill-rule="evenodd" d="M 12.6696 6.76564C 12.6696 10.2613 9.83314 13.0956 6.33481 13.0956C 2.83648 13.0956 0 10.2613 0 6.76564C 0 3.26997 1.74391 0 5.24224 0C 8.74057 0 12.6696 3.26997 12.6696 6.76564Z"/>
<path id="path11_fill" fill-rule="evenodd" d="M 46.7497 23.0161C 47.6847 35.9018 39.3433 47.0921 26.4478 48.0264C 13.5549 48.9607 0.990365 39.282 0.0553758 26.3963C -0.879613 13.5132 10.159 0.989708 23.0519 0.0554304C 35.9474 -0.878848 45.8147 10.1304 46.7497 23.0161Z"/>
<path id="path12_fill" fill-rule="evenodd" d="M 13.4691 6.49708C 12.7364 5.84886 12.5683 4.36346 13.1172 3.63126C 13.6687 2.89643 14.11 1.68397 15.5886 1.7942C 16.8204 1.88867 18.4382 2.85707 18.2281 4.38183C 18.0154 5.90922 18.4015 6.84874 16.4238 7.61769C 14.4435 8.38925 14.2019 7.1453 13.4691 6.49708ZM 29.3587 17.1153C 28.8203 16.7164 26.2438 17.984 25.3482 18.8133C 24.4526 19.6426 22.8243 20.1832 22.9162 20.8262C 23.0081 21.4665 25.2694 21.771 25.3167 22.2145C 25.3613 22.658 23.5675 24.663 21.1381 26.1196C 18.7061 27.5761 17.322 27.8595 16.5367 27.4081C 15.7541 26.9567 16.0797 23.091 16.1454 18.955C 16.1717 17.3778 16.0981 18.6663 16.1559 17.9761C 16.2111 17.2859 16.0482 16.3385 16.7889 16.0498C 17.5321 15.7611 22.1125 16.0997 22.5117 15.6089C 22.9109 15.1208 23.4126 14.0396 22.4277 13.8348C 21.4428 13.6275 17.5006 13.8401 16.7626 13.5357C 16.0272 13.2339 16.3319 12.1028 16.3398 11.3154C 16.3476 10.5255 16.106 9.88254 16.9464 9.54662C 17.7895 9.20807 19.2734 8.72781 19.8276 7.4025C 20.3817 6.07719 20.7993 3.51843 19.9248 2.17999C 19.0502 0.841561 17.8263 -0.155702 15.4573 0.0201314C 13.0857 0.195965 11.649 0.920293 10.7981 2.48967C 9.94453 4.06167 10.3674 6.28189 11.3444 7.47336C 12.3188 8.66483 14.1861 9.52037 14.1809 10.0636C 14.1756 10.6042 14.4514 12.7274 14.0548 13.1184C 13.6556 13.5068 10.1363 13.3782 8.90449 13.4149C 7.67009 13.4543 7.38644 14.0396 7.52827 14.7324C 7.67009 15.4226 8.5867 15.7296 10.068 15.5958C 11.5492 15.4593 12.3135 15.7559 13.083 15.7611C 13.8368 15.769 14.2623 15.8556 14.1966 17.5798C 14.1966 17.5798 14.0469 17.6008 14.0364 18.6348C 14.0285 19.6688 14.0312 21.1752 13.9104 23.5897C 13.7895 26.0041 13.976 26.9908 12.6418 27.2244C 11.3102 27.4606 8.51053 25.9568 6.79814 24.461C 5.08574 22.9677 4.20853 21.8261 4.50531 21.7788C 4.80209 21.7316 6.55126 20.8262 6.55914 20.073C 6.56439 19.4668 5.88153 19.842 3.93276 18.6191C 1.98137 17.3935 1.09891 16.7138 0.55262 17.0051C 0.00896108 17.2964 0.142906 19.367 0.0667413 20.6162C -0.00679715 21.8654 -0.148621 23.5319 0.492214 23.6343C 1.13305 23.7392 2.08117 22.3982 2.32542 22.6475C 2.56968 22.8942 4.37662 25.0803 6.23872 26.3794C 8.10082 27.6758 11.2945 29.0851 12.177 29.5864C 13.0594 30.0876 14.3831 31.1846 14.5748 31.8276C 15.9694 30.106 17.3535 29.98 19.6805 29.0142C 22.0075 28.0511 25.1355 25.7128 26.0836 24.5397C 27.0317 23.364 26.9871 22.8706 27.2812 23.07C 27.5754 23.2695 28.773 24.0647 29.0724 23.8206C 29.3718 23.5765 29.8997 17.5168 29.3587 17.1153Z"/>
<path id="path13_fill" fill-rule="evenodd" d="M 41.2446 9.44655C 40.8612 -2.77254 26.5264 0.465937 20.8062 0.200875C 10.6999 -0.266264 -1.04 2.04319 0.0735808 13.0918C 1.0112 22.4057 14.5344 21.6814 21.7096 21.3507C 30.9781 20.923 41.6281 21.6657 41.2446 9.44655Z"/>
<path id="path14_fill" fill-rule="evenodd" d="M 1.80726e-11 0.153188C 0.508082 0.161997 1.01392 0.178258 1.51578 0.201259C 2.58421 0.251574 3.95297 0.180074 5.47056 0.108574C 6.63732 0.052963 7.89179 0 9.1755 0C 15.2671 0 21.9381 1.22874 22.1986 9.53069C 22.5866 21.8631 11.8094 21.1137 2.43006 21.5453C 1.68142 21.5795 0.864394 21.6179 4.26793e-12 21.649L 0 0.153188L 1.80726e-11 0.153188Z"/>
<path id="path15_fill" fill-rule="evenodd" d="M 24.6342 3.10098C 25.1153 7.41217 24.1531 21.3017 20.7884 23.6956C 17.4236 26.0896 12.1373 27.0482 9.73204 25.6102C 8.61577 24.9429 6.59586 24.2411 5.11548 23.0362C 3.41184 21.646 1.83046 18.214 1.30688 17.0144C -0.00605965 14.0034 -0.441935 9.724 0.52018 7.33007C 1.47964 4.93615 4.33143 0 5.77461 0C 7.21512 0 24.6342 3.10098 24.6342 3.10098Z"/>
<path id="path16_fill" fill-rule="evenodd" d="M 0 1.68769C 0 2.62057 0.741981 3.37538 1.65901 3.37538C 2.57603 3.37538 3.32063 2.62057 3.32063 1.68769C 3.32063 0.754809 2.57603 0 1.65901 0C 0.741981 0 0 0.754809 0 1.68769Z"/>
<path id="path17_fill" fill-rule="evenodd" d="M 41.0284 9.56678C 40.647 -2.80783 26.3874 0.471867 20.6971 0.203432C 10.6438 -0.269653 -1.03455 2.06919 0.0731951 13.2584C 1.0059 22.6909 14.4582 21.9573 21.5959 21.6225C 30.8158 21.1892 41.4099 21.9414 41.0284 9.56678Z"/>
<path id="path18_fill" fill-rule="evenodd" d="M 2.33321e-12 0.17907C 0.210974 0.186369 0.421378 0.194913 0.631085 0.204649C 1.69564 0.255147 3.05679 0.183387 4.57153 0.111627C 5.73671 0.0558133 6.99194 0 8.27364 0C 14.3405 0 20.9795 1.23852 21.239 9.568C 21.623 21.9426 10.8874 21.1905 1.54205 21.6237C 1.0551 21.6462 0.539142 21.6706 0 21.6935L 1.88162e-13 0.17907L 2.33321e-12 0.17907Z"/>
<path id="path19_fill" fill-rule="evenodd" d="M 23.6649 2.5302C 24.1443 6.85707 23.1856 20.7971 19.8331 23.1997C 16.4805 25.6024 11.0968 26.2349 8.44604 25.3525C 7.26231 24.9565 6.09183 23.5426 4.78365 22.4609C 2.92994 20.9327 1.76741 19.2583 1.15568 17.9108C -0.0598168 15.237 -0.284909 10.1314 0.332109 7.61985C 1.28544 3.74215 3.60787 0 5.04316 0C 6.48111 0 23.6649 2.5302 23.6649 2.5302Z"/>
<path id="path20_fill" fill-rule="evenodd" d="M 0 1.66607C 0 2.587 0.744509 3.33214 1.66466 3.33214C 2.58481 3.33214 3.33194 2.587 3.33194 1.66607C 3.33194 0.745139 2.58481 0 1.66466 0C 0.744509 0 0 0.745139 0 1.66607Z"/>
<path id="path21_fill" fill-rule="evenodd" d="M 19.3202 3.61736C 22.2274 4.42022 24.6864 -0.347094 30.3331 0.0202277C 35.9799 0.390173 37.6681 5.86327 40.6776 6.23322C 43.6897 6.60054 47.0007 2.60985 52.6448 5.56154C 58.2915 8.51061 57.2639 15.2116 60.3678 16.0407C 64.0379 17.0194 70.7123 13.3042 75.2291 18.465C 79.746 23.6285 81.3425 26.5435 83.5026 27.2834C 90.0511 29.5293 95.6166 23.1143 98.5658 31.7726C 101.25 39.6648 90.2871 51.4611 77.9371 48.7717C 69.0974 46.8485 68.1143 45.2454 63.3694 47.0952C 60.9235 48.0502 57.3635 52.3269 44.3477 50.6923C 35.9248 49.6323 33.2587 40.8848 30.999 40.8848C 28.7419 40.8848 20.6571 43.9336 10.643 37.2877C 2.13879 31.644 -2.75295 20.9104 1.64857 11.0005C 5.57821 2.1507 12.6642 1.77813 19.3202 3.61736Z"/>
<path id="path22_fill" fill-rule="evenodd" d="M 82.9232 1.67C 80.1234 2.79295 74.2853 -0.337155 68.6412 0.0301674C 62.9945 0.400113 61.3062 5.87321 58.2967 6.24316C 55.2846 6.61048 51.9736 2.62241 46.3269 5.57148C 40.6828 8.52055 41.7078 15.2216 38.6066 16.0507C 34.9364 17.0293 28.2595 13.3141 23.7452 18.475C 19.2283 23.6385 17.6318 26.5534 15.4691 27.2933C 8.92057 29.5392 3.3551 23.1242 0.408524 31.7852C -2.2759 39.6747 8.68725 51.471 21.0372 48.7817C 29.8769 46.8585 30.86 45.2554 35.6023 47.1051C 38.0508 48.0601 41.6108 52.3368 54.624 50.7022C 63.0469 49.6423 65.7156 40.8947 67.9727 40.8947C 70.2325 40.8947 78.3355 43.9724 88.3287 37.2976C 95.1814 32.7245 101.643 22.4132 98.6391 11.9917C 96.6651 5.14381 89.11 -0.814673 82.9232 1.67Z"/>
<path id="path23_fill" fill-rule="evenodd" d="M 1.6707 6.67214C 9.88389 7.71638 21.3582 13.709 24.3258 22.8579C 27.9409 34.0035 37.0978 67.8575 57.0449 76.9356C 72.6402 84.0354 76.9185 82.6055 91.1114 80.7243C 106.788 78.6489 116.684 64.7169 119.502 55.7831C 122.32 46.8493 127.388 23.5191 127.388 23.5191L 80.5782 14.9185C 80.5782 14.9185 76.0167 46.2721 74.2708 47.8279C 72.5249 49.3838 62.786 62.5156 55.0735 54.7467C 47.3584 46.9779 46.4277 36.4698 35.5013 20.5307C 24.5722 4.59152 17.7379 2.70768 10.091 0.716273C 2.44666 -1.27251 0.265567 1.51126 0.265567 1.51126C -0.169604 2.03339 -0.290194 5.11102 1.6707 6.67214Z"/>
<path id="path24_fill" fill-rule="evenodd" d="M 47.0875 14.382L 47.0875 0L 0 1.86427e-14L 0 14.382L 47.0875 14.382Z"/>
<path id="path25_fill" fill-rule="evenodd" d="M 0.23273 2.97707C -1.02297 5.4801 2.77297 7.87557 12.3441 9.94831C 16.5726 10.864 28.5529 13.5612 32.8496 14.0545C 42.0065 15.1013 46.484 13.5061 47.045 11.1526C 47.6585 8.56823 41.8387 5.52733 32.2178 3.31815C 27.1714 2.16109 17.8467 0.560613 12.9759 0.161806C 5.71693 -0.43378 1.40454 0.639325 0.23273 2.97707Z"/>
<path id="path26_fill" fill-rule="evenodd" d="M 9.0314 20.5139C 8.2218 20.183 6.5784 19.8745 5.122 18.6679C 4.132 17.8507 2.8516 16.7297 2.0156 15.4533C 1.3248 14.402 0.548203 12.7699 0.187403 11.3787C -0.318597 9.4224 0.293003 7.19375 0.920003 4.51036C 2.2246 -1.07703 15.1628 -0.923948 18.531 1.99356C 19.4814 2.81523 21.072 4.81201 21.2348 5.6562C 21.7298 8.21802 21.875 10.1945 21.3074 12.0135C 20.9312 13.2224 19.9874 15.0661 19.3714 15.9778C 17.9084 18.1411 16.2716 19.3208 15.2068 20.0141C 12.7934 21.5854 11.2248 21.4121 9.0314 20.5139Z"/>
<path id="path27_fill" fill-rule="evenodd" d="M 15.4321 0L 0 0L 2.00556e-15 11.7592L 15.4321 11.7592L 15.4321 4.10438e-15L 15.4321 0Z"/>
<path id="path28_fill" fill-rule="evenodd" d="M 4.48166 11.4336C 3.2465 10.7428 0.941014 9.88555 0.17553 8.67712C -0.373179 7.80835 0.523272 6.47516 0.706176 5.45851C 0.889079 4.44418 2.1694 3.64473 2.94618 4.30555C 3.09295 4.428 3.22618 4.59899 3.41359 4.61285C 3.80198 4.64289 3.88779 4.07911 3.91037 3.68401C 3.96005 2.85914 4.54489 1.97881 5.35327 1.9973C 6.27682 2.0204 6.77585 3.09943 7.01069 4.01442C 7.0965 4.35638 7.32682 4.79307 7.65424 4.68217C 7.85747 4.61516 7.93424 4.36793 7.98392 4.15305C 8.12166 3.53844 8.26166 2.92383 8.3994 2.30922C 8.6365 1.25792 9.1694 -0.040616 10.2217 0.000974059C 11.1068 0.0333219 11.6375 1.08694 11.6036 1.99268C 11.5675 2.8961 11.17 3.7487 11.0639 4.64751C 11.0436 4.80925 11.0459 5.00333 11.1746 5.10269C 11.3371 5.22977 11.5675 5.11193 11.7436 5.00333C 12.5588 4.49963 13.6178 4.23854 14.4555 4.70065C 15.1623 5.09114 15.5642 5.98763 15.3926 6.79171C 15.2188 7.59578 14.4871 8.23581 13.6833 8.28664C 12.9539 8.33285 12.0597 7.99551 11.5878 8.56622C 11.1723 9.06761 11.3665 10.0334 10.7704 10.2783C 10.0659 10.5648 9.62779 9.39571 8.90521 9.15541C 8.34295 8.96594 7.76263 9.40726 7.42392 9.90172C 7.08295 10.3985 6.85037 10.99 6.37843 11.3551C 5.90876 11.7224 4.67134 12.0066 4.48166 11.4336Z"/>
<path id="path29_fill" fill-rule="evenodd" d="M 3 1.5C 3 2.32907 2.32832 3 1.50141 3C 0.671684 3 0 2.32907 0 1.5C 0 0.670934 0.671684 0 1.50141 0C 2.32832 0 3 0.670934 3 1.5Z"/>
<path id="path30_fill" fill-rule="evenodd" d="M 0.962899 1.25161C 0.858326 1.78554 0.567218 2.10684 0.311439 1.96745C 0.0556597 1.82806 -0.0672839 1.28232 0.0372889 0.748391C 0.140448 0.214461 0.432969 -0.106842 0.688749 0.0325466C 0.943115 0.171936 1.06747 0.717678 0.962899 1.25161Z"/>
<path id="path31_fill" fill-rule="evenodd" d="M 1.44332 1.7915C 0.948807 2.12917 0.349024 2.04813 0.104215 1.61051C -0.140594 1.17559 0.0601496 0.546173 0.557112 0.208503C 1.05163 -0.129166 1.65141 -0.0481252 1.89622 0.389494C 2.14103 0.824412 1.93784 1.45383 1.44332 1.7915Z"/>
<path id="path32_fill" fill-rule="evenodd" d="M 0.912612 0.700306C 0.75619 0.952968 0.446473 1.06819 0.218096 0.958521C -0.0102807 0.847461 -0.068157 0.553152 0.0867013 0.30049C 0.243124 0.04644 0.554405 -0.0687848 0.781217 0.0422753C 1.00959 0.153335 1.06904 0.447645 0.912612 0.700306Z"/>
<path id="path33_fill" fill-rule="evenodd" d="M 1.5704 0.322599C 2.02498 0.72904 2.1361 1.36215 1.82042 1.73472C 1.50474 2.1099 0.883487 2.08384 0.428909 1.6774C -0.0231426 1.27096 -0.136787 0.637851 0.178892 0.26528C 0.49457 -0.109896 1.11583 -0.0838418 1.5704 0.322599Z"/>
<path id="path34_fill" fill-rule="evenodd" d="M 0.998425 1.04888C 0.976687 1.59938 0.73757 2.02446 0.462223 1.99891C 0.186877 1.97103 -0.0189086 1.50183 0.00138007 0.951322C 0.023118 0.398495 0.263684 -0.0265775 0.539031 0.00129611C 0.814377 0.0291697 1.02016 0.498376 0.998425 1.04888Z"/>
<path id="path35_fill" fill-rule="evenodd" d="M 0.934819 0.657673C 1.07065 1.1755 0.987486 1.75085 0.747709 1.94024C 0.507931 2.12723 0.201625 1.86113 0.0657972 1.34091C -0.0714167 0.823089 0.0131293 0.24773 0.252907 0.0607391C 0.492685 -0.12865 0.798991 0.139851 0.934819 0.657673Z"/>
<path id="path36_fill" fill-rule="evenodd" d="M 0.632405 13.4084C 0.416405 12.7324 -0.143595 10.9824 0.034405 8.95738C 0.182405 7.27238 0.516405 5.28338 1.1304 3.70838C 1.5074 2.74338 2.75341 1.73638 3.32341 1.11738C 3.86941 0.524376 5.0784 0.0863759 5.8144 0.0213759C 10.0744 -0.356624 17.6854 4.36038 17.2744 7.69438C 17.1124 9.01338 17.3884 10.9994 15.5144 12.4114C 14.3894 13.2594 13.4874 14.1394 12.3914 14.7374C 11.6484 15.1424 10.1324 15.9994 9.1364 16.3984C 8.0254 16.8424 5.7424 16.7734 5.2164 16.7634C 4.1284 16.7424 2.99141 16.5424 2.4924 16.0654C 1.9944 15.5894 0.898405 14.2384 0.632405 13.4084Z"/>
<path id="path37_fill" fill-rule="evenodd" d="M 10.6758 9.48726L 10.6758 0L 0 0L 1.77636e-15 9.48726L 10.6758 9.48726Z"/>
<path id="path38_fill" fill-rule="evenodd" d="M 0.575553 5.85911C 0.0595533 4.87911 -0.0124467 3.72911 0.00155329 2.62211C 0.0105533 1.82711 0.0885533 0.958112 0.641553 0.387112C 1.19455 -0.183888 2.37355 -0.137888 2.60255 0.623112C 2.64455 0.765112 2.65955 0.933112 2.77755 1.02411C 3.01855 1.21111 3.31455 0.888112 3.49855 0.644112C 3.88155 0.138112 5.02255 -0.0648883 5.54355 0.298112C 6.14055 0.715112 5.62555 1.51811 5.38955 2.20611C 5.30155 2.46311 5.26655 2.84311 5.52855 2.91511C 5.69055 2.95911 5.84655 2.83411 5.96855 2.71911C 6.32155 2.38511 6.67355 2.05111 7.02655 1.71811C 7.62855 1.14811 8.53055 0.548112 9.20355 1.03211C 9.76955 1.43911 9.66955 2.34511 9.26155 2.90911C 8.85355 3.47311 9.52655 3.53311 9.07355 4.06311C 8.99255 4.15911 8.91155 4.28411 8.95255 4.40311C 9.00555 4.55611 9.20655 4.58011 9.36855 4.58711C 10.1166 4.61911 9.62655 5.22611 9.97955 5.88711C 10.2776 6.44511 10.9826 8.55111 10.5276 8.99111C 10.0716 9.43111 9.10455 9.65611 8.55655 9.33911C 8.05855 9.05011 7.25555 7.44011 6.70255 7.60011C 6.21755 7.74011 5.68455 7.95911 5.19055 7.85611C 4.60555 7.73411 4.81655 6.79311 4.44655 6.32511C 4.15755 5.96011 3.58855 5.98811 3.15555 6.15811C 2.72255 6.32811 2.31655 6.60611 1.85255 6.63511C 1.38855 6.66511 0.456553 6.30911 0.575553 5.85911Z"/>
<path id="path39_fill" fill-rule="evenodd" d="M 1.063 0.664C 1.063 1.031 0.825 1.328 0.532 1.328C 0.238 1.328 0 1.031 0 0.664C 0 0.297 0.238 0 0.532 0C 0.825 0 1.063 0.297 1.063 0.664Z"/>
<path id="path40_fill" fill-rule="evenodd" d="M 0.910227 1.0233C 0.598227 1.2163 0.220227 1.1703 0.0652267 0.920303C -0.0887733 0.671303 0.0392267 0.312303 0.351227 0.119303C 0.663227 -0.0736973 1.04123 -0.0276973 1.19623 0.222303C 1.35023 0.471303 1.22223 0.830303 0.910227 1.0233Z"/>
<path id="path41_fill" fill-rule="evenodd" d="M 0.58957 0.663185C 0.38757 0.788185 0.14257 0.758185 0.04257 0.596185C -0.05743 0.435185 0.02457 0.202185 0.22757 0.0771848C 0.42957 -0.0478152 0.67457 -0.0178152 0.77457 0.144185C 0.87457 0.305185 0.79157 0.538185 0.58957 0.663185Z"/>
<path id="path42_fill" fill-rule="evenodd" d="M 0.688952 0.451558C 0.673952 0.688558 0.508952 0.871558 0.318952 0.860558C 0.128952 0.848558 -0.0130477 0.646558 0.0009523 0.409558C 0.0159523 0.171558 0.181952 -0.011442 0.371952 0.000557994C 0.561952 0.012558 0.703952 0.214558 0.688952 0.451558Z"/>
<path id="path43_fill" fill-rule="evenodd" d="M 0.910227 1.0233C 0.598227 1.2163 0.220227 1.1703 0.0652267 0.920303C -0.0887733 0.671303 0.0392267 0.312303 0.351227 0.119303C 0.663227 -0.0736973 1.44023 -0.0276973 1.59423 0.222303C 1.74923 0.471303 1.22223 0.830303 0.910227 1.0233Z"/>
</defs>
</svg>
