<svg width="343" height="103" viewBox="0 0 343 103" version="1.1" xmlns="http://www.w3.org/2000/svg" xmlns:xlink="http://www.w3.org/1999/xlink">
<title>sailor_logo</title>
<desc>Created using Figma</desc>
<g id="Canvas" transform="translate(-732 -512)">
<g id="sailor_logo">
<g id="Fill 1">
<use xlink:href="#path0_fill" transform="translate(732 513)" fill="#000F32"/>
</g>
<g id="Fill 3">
<use xlink:href="#path1_fill" transform="translate(903 517)" fill="#000F32"/>
</g>
<g id="Fill 5">
<use xlink:href="#path2_fill" transform="translate(870 516)" fill="#000F32"/>
</g>
<g id="Group 9">
<mask id="mask0_outline" mask-type="alpha">
<g id="Clip 8">
<use xlink:href="#path3_fill" transform="translate(948.077 512.533)" fill="#FFFFFF"/>
</g>
</mask>
<g id="Fill 7" mask="url(#mask0_outline)">
<use xlink:href="#path4_fill" transform="translate(948.077 512.532)" fill="#000F32"/>
</g>
</g>
<g id="Group 12">
<mask id="mask1_outline" mask-type="alpha">
<g id="Clip 11">
<use xlink:href="#path5_fill" transform="translate(1010.29 515.419)" fill="#FFFFFF"/>
</g>
</mask>
<g id="Fill 10" mask="url(#mask1_outline)">
<use xlink:href="#path6_fill" transform="translate(1010.29 515.419)" fill="#000F32"/>
</g>
</g>
<g id="Fill 13">
<use xlink:href="#path7_fill" transform="translate(797 516)" fill="#000F32"/>
</g>
</g>
</g>
<defs>
<path id="path0_fill" fill-rule="evenodd" d="M 28.4554 30.4318C 26.3726 25.8984 28.7518 21.3216 34.4551 21.45C 40.5781 21.5883 40.5781 28.6164 40.6557 29.2011C 40.9342 31.291 42.6907 31.7039 44.0872 31.7039L 58.2112 31.7039C 60.2044 31.7039 60.8132 31.2831 60.5764 26.3152C 59.8802 11.6682 49.134 0 32.6448 0C 13.0046 0 2.6424 11.0164 2.6424 26.8505C 2.6424 51.8126 40.5065 62.5485 40.5065 73.553C 40.5065 77.4898 38.5928 81.4285 33.8623 81.4285C 24.1764 81.4285 23.896 69.5016 23.4782 67.2892C 23.0604 65.0788 22.2269 63.7929 21.1129 63.7929L 2.37185 63.7929C 1.41699 63.7929 -0.112769 64.6364 0.00658844 66.185C 0.28111 69.7347 0.909725 75.1944 1.9541 78.588C 7.25158 95.8049 22.3741 101 35.3483 101C 50.6658 101 64 89.8355 64 74.5367C 64 50.4022 32.0739 38.3073 28.4554 30.4318Z"/>
<path id="path1_fill" fill-rule="evenodd" d="M 36.1073 69.719C 32.7646 69.719 27.834 69.8165 25.6287 69.8165C 22.1649 69.9956 21.3928 68.7596 21.4166 65.4757C 21.5575 45.2284 21.4424 24.0835 21.5357 3.83622C 21.5496 1.02593 20.835 -0.112521 17.8317 0.0128674C 12.5021 0.237771 9.74301 0.247722 4.41537 0.0128674C 1.09453 -0.132424 -0.0349113 0.930393 0.000818052 4.33977C 0.15763 18.7674 0.0683068 33.1971 0.0683068 47.6267C 0.0683068 62.1738 0.0861714 76.7188 0.0484571 91.2639C 0.0444872 93.4453 0.108006 95.0256 3.10133 94.9997C 17.0258 94.8723 22.1312 94.9101 36.0576 94.9778C 38.118 94.9877 39.0113 94.3807 38.9894 92.2252C 38.918 85.3607 38.9061 79.3898 38.9994 72.5253C 39.0272 70.3559 38.1478 69.719 36.1073 69.719Z"/>
<path id="path2_fill" fill-rule="evenodd" d="M 20.6806 0L 2.31943 0C 1.03904 0 0 1.00661 0 2.24704L 0 92.753C 0 93.9934 1.03904 95 2.31943 95L 20.6806 95C 21.961 95 23 93.9934 23 92.753L 23 2.24704C 23 1.00661 21.961 0 20.6806 0Z"/>
<path id="path3_fill" fill-rule="evenodd" d="M 55.5112 0L 0 0L 8.53315e-14 102.076L 55.5112 102.076L 55.5112 2.82345e-14L 55.5112 0Z"/>
<path id="path4_fill" fill-rule="evenodd" d="M 31.7206 72.0542C 31.7206 74.2258 30.6258 76.5921 27.6975 76.5921C 25.1575 76.5921 23.7905 74.5357 23.7905 72.0542L 23.7905 30.0249C 23.7905 27.8533 24.8833 25.487 27.8136 25.487C 30.3536 25.487 31.7206 27.5414 31.7206 30.0249L 31.7206 72.0542ZM 28.1659 0C 7.65795 0 0 14.2058 0 31.7594L 0 70.3197C 0 87.6905 9.57144 102.077 27.3453 102.077C 47.8532 102.077 55.5112 87.8733 55.5112 70.3197L 55.5112 31.7594C 55.5112 14.3866 45.9397 0 28.1659 0Z"/>
<path id="path5_fill" fill-rule="evenodd" d="M 64.3384 96.2637L 64.3384 0L 0 2.81961e-14L 0 96.2637L 64.3384 96.2637Z"/>
<path id="path6_fill" fill-rule="evenodd" d="M 28.9127 22.5694C 31.0106 22.5694 33.295 25.6825 33.295 28.4622C 33.295 30.871 31.3094 34.244 28.9127 34.244L 22.553 34.244L 22.553 22.5694L 28.9127 22.5694ZM 57.9539 69.6288C 57.9539 63.0594 55.2263 55.4919 45.0118 51.9483C 52.7855 47.1348 57.9178 39.0277 57.9178 28.7956C 57.9178 9.33926 44.1955 0 27.2361 0L 20.2787 0L 17.5691 0L 2.27435 0C 1.01684 0 0 1.00595 0 2.24801L 0 92.8728C 0 94.1169 1.01684 95.1228 2.27435 95.1228L 20.2787 95.1228C 21.5342 95.1228 22.553 94.1169 22.553 92.8728L 22.553 56.863C 27.0817 57.1269 30.3327 59.2439 30.3327 65.9979L 30.3327 77.6546C 30.3327 83.1903 31.8169 96.2637 46.4157 96.2637C 59.8773 96.2637 64.1512 86.4224 64.3358 80.7677C 64.5102 75.4066 57.9539 77.4165 57.9539 69.6288Z"/>
<path id="path7_fill" fill-rule="evenodd" d="M 30.2722 67.1465L 22.4591 67.1465C 22.1527 67.1465 22.0643 66.8082 22.0643 66.4598C 22.0643 66.1354 25.4504 39.3508 25.5034 39.0661C 25.5564 38.7815 25.6684 38.463 26.0867 38.463L 27.1748 38.463C 27.5382 38.463 27.6639 38.9507 27.7189 39.2115C 28.6361 43.5846 30.828 66.3045 30.828 66.5713C 30.828 66.8579 30.663 67.1465 30.2722 67.1465ZM 38.2168 0L 24.3937 0C 23.2762 0 22.3707 0.935549 22.3707 2.08807L 0 92.9119C 0 94.0664 0.905435 95 2.02495 95L 17.1699 95C 18.2894 95 19.1948 94.0664 19.1948 92.9119C 19.1948 92.9119 20.7484 81.1161 20.8368 80.5627C 20.9252 80.0093 21.2296 80.0372 21.426 80.0372L 31.4428 80.0372C 31.7786 80.0372 31.9593 80.3597 31.9947 80.5866C 32.03 80.8155 33.7034 92.9119 33.7034 92.9119C 33.7034 94.0664 34.6108 95 35.7283 95L 58.975 95C 60.0926 95 61 94.0664 61 92.9119L 40.2418 2.08807C 40.2418 0.935549 39.3363 0 38.2168 0Z"/>
</defs>
</svg>
