<svg width="144" height="38" viewBox="0 0 144 38" version="1.1" xmlns="http://www.w3.org/2000/svg" xmlns:xlink="http://www.w3.org/1999/xlink">
<title>tea</title>
<desc>Created using Figma</desc>
<g id="Canvas" transform="translate(-1076 -677)">
<g id="tea">
<g id="Group 3">
<g id="Fill 1">
<use xlink:href="#path0_fill" transform="translate(1076 688.452)" fill="#FEFEFE"/>
</g>
</g>
<g id="Fill 4">
<use xlink:href="#path1_fill" transform="translate(1101.91 688.356)" fill="#FEFEFE"/>
</g>
<g id="Fill 6">
<use xlink:href="#path2_fill" transform="translate(1103.62 677.196)" fill="#FEFEFE"/>
</g>
<g id="Fill 8">
<use xlink:href="#path3_fill" transform="translate(1192.72 689.51)" fill="#FEFEFE"/>
</g>
<g id="Fill 10">
<use xlink:href="#path4_fill" transform="translate(1192.77 677)" fill="#FEFEFE"/>
</g>
<g id="Fill 12">
<use xlink:href="#path5_fill" transform="translate(1146.29 688.317)" fill="#FEFEFE"/>
</g>
<g id="Fill 14">
<use xlink:href="#path6_fill" transform="translate(1209.43 688.286)" fill="#FEFEFE"/>
</g>
<g id="Group 18">
<mask id="mask0_outline" mask-type="alpha">
<g id="Clip 17">
<use xlink:href="#path7_fill" transform="translate(1165.07 687.885)" fill="#FFFFFF"/>
</g>
</mask>
<g id="Fill 16" mask="url(#mask0_outline)">
<use xlink:href="#path8_fill" transform="translate(1165.07 687.885)" fill="#FEFEFE"/>
</g>
</g>
</g>
</g>
<defs>
<path id="path0_fill" fill-rule="evenodd" d="M 12.795 0.0349186C 9.02302 -0.089445 5.24905 0.157555 1.47706 0.167919C -0.491361 0.1731 -0.493348 2.8331 1.47706 2.82792C 2.93898 2.82446 4.4009 2.78474 5.86282 2.74501C 5.88268 9.88383 5.15768 17.0157 4.9948 24.1528C 4.95706 25.8663 8.01597 25.8663 8.05371 24.1528C 8.21658 16.995 8.94556 9.84237 8.92172 2.67937C 10.2128 2.66037 11.5039 2.65174 12.795 2.69492C 14.7634 2.75883 14.7614 0.0988277 12.795 0.0349186Z"/>
<path id="path1_fill" fill-rule="evenodd" d="M 6.66789 10.8646C 5.49796 11.0529 4.32604 11.2791 3.14817 11.445C 3.07666 8.55004 3.03097 5.65686 3.1005 2.76195C 4.32406 2.74468 5.54166 2.66695 6.76919 2.66004C 8.73563 2.64795 8.7396 -0.0120498 6.76919 4.10943e-05C 5.03913 0.0104047 3.32495 0.164132 1.59488 0.088132C 0.57392 0.0449502 0.0972075 0.737587 0.134947 1.4285C 0.113098 1.51486 0.0693993 1.5874 0.0654267 1.68413C -0.200738 9.15113 0.448783 16.6181 0.182618 24.0834C 0.156797 24.8037 0.903646 25.4117 1.71207 25.4134C 3.43221 25.4151 5.15036 25.4445 6.8705 25.4462C 8.83892 25.4497 8.84091 22.7897 6.8705 22.7862C 5.67077 22.7845 4.47104 22.7724 3.26933 22.7638C 3.33289 19.8775 3.28522 16.9895 3.21173 14.1032C 4.64187 13.9167 6.06008 13.6576 7.48029 13.4296C 9.41495 13.1204 8.5946 10.5554 6.66789 10.8646Z"/>
<path id="path2_fill" fill-rule="evenodd" d="M 2.58371 8.35955C 4.53028 6.53382 5.98426 3.97573 6.85426 1.63009C 7.45809 -0.00217938 4.50645 -0.701725 3.9046 0.923639C 3.20145 2.815 1.99378 5.00173 0.420626 6.47855C -0.916155 7.73255 1.24296 9.61873 2.58371 8.35955Z"/>
<path id="path3_fill" fill-rule="evenodd" d="M 0.000277517 1.28444C 0.145278 8.55626 0.719319 15.8212 0.58425 23.0964C 0.552469 24.8082 3.60939 24.8082 3.64315 23.0964C 3.77822 15.8212 3.20418 8.55626 3.05918 1.28444C 3.02541 -0.425556 -0.0334896 -0.430738 0.000277517 1.28444Z"/>
<path id="path4_fill" fill-rule="evenodd" d="M 3.57596 0.66552C 2.47357 2.48779 1.09706 4.16325 0.143634 6.05634C -0.638968 7.60916 1.99487 8.96507 2.78542 7.40016C 3.73884 5.50534 5.11336 3.82988 6.21774 2.00761C 7.13343 0.49452 4.49363 -0.851025 3.57596 0.66552Z"/>
<path id="path5_fill" fill-rule="evenodd" d="M 6.63498 0.127122C 4.9347 -0.00760557 3.23443 -0.0352419 1.53018 0.0442126C 1.34148 0.052849 1.18655 0.10294 1.03361 0.154758C 0.987923 0.165122 0.944224 0.170304 0.900526 0.184122C 0.888608 0.189304 0.878676 0.196213 0.866758 0.201394C 0.368197 0.374122 -0.019132 0.759304 0.000731048 1.37421C 0.233128 9.0053 0.588676 16.6364 0.709841 24.2709C 0.735663 25.9809 3.79457 25.9861 3.76874 24.2709C 3.71114 20.7059 3.6019 17.1408 3.48073 13.5774C 4.35868 13.4789 5.48491 13.4668 6.43039 13.3356C 7.24676 13.2216 7.69964 12.3372 7.49703 11.6981C 7.25868 10.9433 6.43436 10.6548 5.616 10.7706C 4.98039 10.8587 4.17196 10.8846 3.38936 10.9416C 3.29005 8.1883 3.19272 5.4333 3.10333 2.68003C 4.28121 2.66967 5.4571 2.69385 6.63498 2.78712C 8.59546 2.94258 8.58155 0.282576 6.63498 0.127122Z"/>
<path id="path6_fill" fill-rule="evenodd" d="M 6.39347 17.9984C 6.29217 19.2748 6.40539 21.826 5.0845 22.7294C 4.84614 22.8918 4.94347 22.9539 4.48265 22.7415C 4.20059 22.6119 3.89271 22.491 3.70203 22.2578C 3.12402 21.5479 3.271 20.0763 3.21539 19.2334C 2.92539 14.7459 3.45176 10.2464 3.06045 5.76239C 3.04258 4.67248 3.10018 3.21639 4.47073 2.77939C 6.3021 2.19384 6.51265 5.3962 6.53052 6.37902C 6.60203 10.2343 6.69737 14.15 6.39347 17.9984ZM 9.58546 6.18214C 9.52587 4.1906 9.04121 2.05569 7.2019 0.711868C 5.70224 -0.38495 3.80731 -0.103405 2.28977 0.805141C 0.414706 1.92787 -0.0302254 3.89869 0.00155539 5.76241C 0.424638 10.6195 -0.244746 15.5008 0.247857 20.3544C 0.446487 22.3062 0.734501 24.0715 2.93731 25.0371C 4.8521 25.8765 6.59012 25.4689 7.84745 23.98C 9.07895 22.5221 9.2021 20.534 9.38087 18.7878C 9.60532 16.6045 9.61525 14.4074 9.60334 12.2172C 9.58943 10.2084 9.64306 8.19096 9.58546 6.18214Z"/>
<path id="path7_fill" fill-rule="evenodd" d="M 0 26.2769L 16.6228 26.2769L 16.6228 0L 1.41135e-14 0L 1.41135e-14 26.2769L 0 26.2769Z"/>
<path id="path8_fill" fill-rule="evenodd" d="M 6.09086 10.9973C 6.08093 9.80205 6.06107 8.60677 6.05908 7.4115C 6.05908 6.22141 6.06107 5.03132 6.0849 3.84123C 6.09285 3.48195 6.10278 3.12441 6.11867 2.76514C 6.28949 2.7565 6.43251 2.74786 6.45833 2.74786C 7.39388 2.78068 8.4784 2.87395 9.33847 3.21595C 11.0824 3.90859 11.4857 5.85695 11.152 7.35277C 10.8699 8.61714 10.0615 9.81241 8.74456 10.4515C 7.91032 10.8557 7.00853 11.0042 6.09086 10.9973ZM 6.16436 1.9792C 6.19217 1.98784 6.18423 2.01548 6.16238 2.05002C 6.16238 2.04311 6.16436 2.0362 6.16238 2.0293C 6.12265 1.76157 6.22197 1.9982 6.16436 1.9792ZM 10.8957 12.3964C 11.8194 11.8506 12.6199 11.0958 13.2356 10.0939C 15.3272 6.68776 14.3579 1.66658 9.63246 0.498942C 8.10301 0.122397 4.4502 -0.590967 3.39746 0.935942C 2.99225 1.52321 3.0717 2.38512 3.04787 3.04322C 2.9565 5.52531 2.97835 8.01258 3.00814 10.4964C 2.6089 10.3841 2.21759 10.2649 1.84218 10.1389C 0.00485492 9.52049 -0.789666 12.0907 1.0278 12.7039C 1.67931 12.9232 2.35465 13.1011 3.03992 13.2445C 3.08164 17.1136 3.15116 20.9844 3.17896 24.8535C 3.19088 26.5652 6.24979 26.5687 6.23787 24.8535C 6.21006 21.0932 6.15643 17.3329 6.11273 13.5727C 6.78013 13.5709 7.43362 13.5122 8.06924 13.3999C 10.2701 17.2569 12.1153 21.24 13.5951 25.3509C 14.1831 26.978 17.1367 26.2837 16.5448 24.6428C 15.0292 20.4386 13.1303 16.3501 10.8957 12.3964Z"/>
</defs>
</svg>
